<svg width="11" height="11" viewBox="0 0 11 11" fill="none" xmlns="http://www.w3.org/2000/svg">
<path d="M7.79199 1.37481C7.91237 1.25443 8.05528 1.15895 8.21256 1.0938C8.36984 1.02865 8.53842 0.995117 8.70866 0.995117C8.8789 0.995117 9.04747 1.02865 9.20475 1.0938C9.36204 1.15895 9.50495 1.25443 9.62533 1.37481C9.7457 1.49519 9.84119 1.6381 9.90634 1.79538C9.97149 1.95267 10.005 2.12124 10.005 2.29148C10.005 2.46172 9.97149 2.63029 9.90634 2.78758C9.84119 2.94486 9.7457 3.08777 9.62533 3.20815L3.43783 9.39565L0.916992 10.0831L1.60449 7.56231L7.79199 1.37481Z" stroke="#7A7886" stroke-linecap="round" stroke-linejoin="round"/>
</svg>
