<svg width="22" height="22" viewBox="0 0 22 22" fill="none" xmlns="http://www.w3.org/2000/svg">
<path d="M20.9994 15.9201V18.9201C21.0006 19.1986 20.9435 19.4743 20.832 19.7294C20.7204 19.9846 20.5567 20.2137 20.3515 20.402C20.1463 20.5902 19.904 20.7336 19.6402 20.8228C19.3764 20.912 19.0968 20.9452 18.8194 20.9201C15.7423 20.5857 12.7864 19.5342 10.1894 17.8501C7.77327 16.3148 5.72478 14.2663 4.18945 11.8501C2.49942 9.2413 1.44769 6.27109 1.11944 3.1801C1.09446 2.90356 1.12732 2.62486 1.21595 2.36172C1.30457 2.09859 1.44702 1.85679 1.63421 1.65172C1.82141 1.44665 2.04925 1.28281 2.30324 1.17062C2.55722 1.05843 2.83179 1.00036 3.10945 1.0001H6.10945C6.59475 0.995321 7.06524 1.16718 7.43321 1.48363C7.80118 1.80008 8.04152 2.23954 8.10944 2.7201C8.23607 3.68016 8.47089 4.62282 8.80945 5.5301C8.94399 5.88802 8.97311 6.27701 8.89335 6.65098C8.8136 7.02494 8.62831 7.36821 8.35944 7.6401L7.08945 8.9101C8.513 11.4136 10.5859 13.4865 13.0894 14.9101L14.3594 13.6401C14.6313 13.3712 14.9746 13.1859 15.3486 13.1062C15.7225 13.0264 16.1115 13.0556 16.4694 13.1901C17.3767 13.5286 18.3194 13.7635 19.2794 13.8901C19.7652 13.9586 20.2088 14.2033 20.526 14.5776C20.8431 14.9519 21.0116 15.4297 20.9994 15.9201Z" stroke="#A9A9A9" stroke-opacity="0.6" stroke-width="2" stroke-linecap="round" stroke-linejoin="round"/>
</svg>
