<svg width="28" height="28" viewBox="0 0 28 28" fill="none" xmlns="http://www.w3.org/2000/svg">
<path d="M3.5 7H5.83333H24.5" stroke="#BBBBBE" stroke-width="2" stroke-linecap="round" stroke-linejoin="round"/>
<path d="M9.33398 6.99967V4.66634C9.33398 4.0475 9.57982 3.45401 10.0174 3.01643C10.455 2.57884 11.0485 2.33301 11.6673 2.33301H16.334C16.9528 2.33301 17.5463 2.57884 17.9839 3.01643C18.4215 3.45401 18.6673 4.0475 18.6673 4.66634V6.99967M22.1673 6.99967V23.333C22.1673 23.9518 21.9215 24.5453 21.4839 24.9829C21.0463 25.4205 20.4528 25.6663 19.834 25.6663H8.16732C7.54848 25.6663 6.95499 25.4205 6.5174 24.9829C6.07982 24.5453 5.83398 23.9518 5.83398 23.333V6.99967H22.1673Z" stroke="#BBBBBE" stroke-width="2" stroke-linecap="round" stroke-linejoin="round"/>
</svg>
